<svg width="100" height="100" viewBox="0 0 100 100" fill="none" xmlns="http://www.w3.org/2000/svg">
<path d="M93 54C93 67.0419 81.9906 75.1907 72.5 82.7C65.5127 88.2286 61.6018 95 52 95C29.3563 95 11 76.6437 11 54C11 40.2216 19.4366 32.7339 29.86 25.3C36.5666 20.5169 43.1347 13 52 13C74.6437 13 93 31.3563 93 54Z" fill="#856A5B"/>
<path d="M89 46C89 59.0419 77.9906 67.1907 68.5 74.7C61.5127 80.2286 57.6018 87 48 87C25.3563 87 7 68.6437 7 46C7 32.2216 15.4366 24.7339 25.86 17.3C32.5666 12.5169 39.1347 5 48 5C70.6437 5 89 23.3563 89 46Z" fill="#97EB79"/>
<path fill-rule="evenodd" clip-rule="evenodd" d="M30.639 32.9681C32.0747 33.98 32.3346 36.08 31.4448 37.6532C27.2611 45.0501 27.6525 54.4738 33.0608 61.0176C37.1737 65.9941 43.2485 68.1682 49.231 67.4477C50.8423 67.2537 52.4444 68.2142 52.8424 69.8657L52.9716 70.4017C53.3641 72.0305 52.4391 73.7169 50.8596 73.9855C42.4984 75.407 33.8479 72.5603 28.0856 65.5881C20.6365 56.5749 20.3256 43.4641 26.5035 33.4676C27.3347 32.1225 29.0511 31.849 30.3092 32.7357L30.639 32.9681ZM69.0041 55.6732C70.4807 56.306 72.1918 55.5708 72.6603 53.9579C75.1401 45.4202 73.6492 35.9961 67.8869 29.0239C60.4378 20.0107 48.1619 17.8919 37.924 22.9759C36.5465 23.66 36.0546 25.4151 36.7155 26.8504L36.8888 27.2267C37.643 28.8645 39.5805 29.4234 41.1804 28.7093C48.7029 25.3523 57.5035 27.0506 62.9118 33.5945C67.0247 38.5709 68.2361 45.2129 66.7405 51.3624C66.3377 53.0186 67.0209 54.8233 68.5181 55.4649L69.0041 55.6732Z" fill="black"/>
<path d="M35.3973 33.5279C35.1127 32.6564 35.9837 31.8563 36.7636 32.2727L53.6815 41.3065C54.295 41.6341 54.395 42.5135 53.8733 42.9928L43.128 52.8641C42.6064 53.3433 41.7938 53.1185 41.5699 52.433L35.3973 33.5279Z" fill="black"/>
</svg>
